<svg width="27" height="25" viewBox="0 0 27 25" fill="none" xmlns="http://www.w3.org/2000/svg">
<path fill-rule="evenodd" clip-rule="evenodd" d="M18.7039 5.75655C18.7039 8.8854 16.1659 11.4219 13.0349 11.4219C9.90386 11.4219 7.3658 8.8854 7.3658 5.75655C7.3658 2.62832 9.90386 0.0917969 13.0349 0.0917969C16.1659 0.0917969 18.7039 2.62832 18.7039 5.75655ZM5.67045 12.8383C2.53949 12.8383 0.00131226 15.3741 0.00131226 18.5029C0.00131226 21.6315 2.53949 24.1678 5.67045 24.1678C8.80153 24.1678 11.3398 21.6315 11.3398 18.5029C11.3398 15.3741 8.80153 12.8383 5.67045 12.8383ZM20.3993 12.8378C17.2683 12.8378 14.7302 15.3741 14.7302 18.5029C14.7302 21.6315 17.2683 24.1678 20.3993 24.1678C23.5303 24.1678 26.0684 21.6315 26.0684 18.5029C26.0684 15.3741 23.5303 12.8378 20.3993 12.8378Z" fill="#A1A89D"/>
</svg>
