<svg width="29" height="33" viewBox="0 0 29 33" fill="none" xmlns="http://www.w3.org/2000/svg">
<path d="M14.5116 0.0651855C13.2916 0.0651855 12.3219 0.747754 12.3219 1.5787L13.0628 9.98403C13.1446 10.4904 13.7638 10.8811 14.5123 10.8811C15.2623 10.8801 15.8793 10.4898 15.9629 9.98403L16.7073 1.5787C16.7073 0.747825 15.7349 0.0652569 14.5131 0.0652569L14.5116 0.0651855ZM2.43747 6.80754C1.8041 6.82259 1.08459 7.30302 0.626916 8.09802C0.0148279 9.15663 0.123293 10.3396 0.839463 10.7547L8.47471 14.317C8.95169 14.4948 9.59951 14.1554 9.97463 13.5075C9.97469 13.5074 9.97458 13.5072 9.97463 13.5071C10.3515 12.856 10.3223 12.1239 9.92559 11.7991L3.02962 6.95332C2.85053 6.84939 2.64906 6.80263 2.43792 6.80764L2.43747 6.80754ZM26.5858 6.80754C26.3747 6.80252 26.1736 6.84929 25.9948 6.95321L19.098 11.799C18.7036 12.1238 18.6743 12.8559 19.0493 13.507L19.0496 13.5074C19.4261 14.1553 20.0719 14.4947 20.5489 14.3169L28.1875 10.7547C28.9066 10.3397 29.0097 9.15676 28.4018 8.09809C27.942 7.30308 27.2213 6.82267 26.588 6.80761L26.5858 6.80754ZM8.75996 17.8972C8.66118 17.8958 8.56542 17.9111 8.47577 17.9449L0.840506 21.503C0.124355 21.9198 0.0159001 23.1033 0.627971 24.163C1.23821 25.2196 2.31383 25.7218 3.03016 25.3075L9.92666 20.4654C10.3235 20.1367 10.3527 19.4048 9.97571 18.7543L9.97884 18.7558C9.67401 18.2259 9.18801 17.9029 8.75997 17.8971L8.75996 17.8972ZM20.2667 17.8972C19.8392 17.903 19.3541 18.226 19.0486 18.7559L19.0513 18.7544C18.6762 19.4049 18.7052 20.1368 19.0997 20.4656L25.9965 25.3076C26.7115 25.722 27.7882 25.2197 28.4012 24.1632C29.0092 23.1034 28.9061 21.9199 28.187 21.5031L20.5506 17.945C20.461 17.9112 20.3654 17.8959 20.2668 17.8973L20.2667 17.8972ZM14.5106 21.3807C13.7633 21.3816 13.1456 21.7705 13.0639 22.2756L12.323 30.6806C12.323 31.5129 13.2926 32.1941 14.5127 32.1941C15.735 32.1941 16.7065 31.5129 16.7065 30.6806L15.9638 22.2756C15.8803 21.7705 15.2633 21.3816 14.5133 21.3807H14.5105H14.5106Z" fill="#A1A89D"/>
</svg>
